<?xml version="1.0" encoding="utf-8"?>
<!-- Generator: Adobe Illustrator 26.0.0, SVG Export Plug-In . SVG Version: 6.00 Build 0)  -->
<svg version="1.1" id="Capa_1" xmlns="http://www.w3.org/2000/svg" xmlns:xlink="http://www.w3.org/1999/xlink" x="0px" y="0px"
	 viewBox="0 0 536.5 531.4" style="enable-background:new 0 0 536.5 531.4;" xml:space="preserve">
<style type="text/css">
	.st0{fill:#2C2C2C;}
</style>
<path class="st0" d="M14.85,269.34c0-0.09,0-0.18,0-0.26c0.5-0.16,0.98-0.37,1.49-0.47c13.63-2.65,27.29-5.14,40.88-7.95
	c24.3-5.01,48.3-11.22,71.75-19.41c11.01-3.85,21.84-8.11,32.19-13.54c16.01-8.41,30.31-19.04,42.48-32.47
	c11.01-12.15,19.7-25.83,26.55-40.68c7.38-15.99,13.12-32.58,17.98-49.49c6.86-23.86,11.84-48.14,16.46-72.5
	c1.04-5.46,2.08-10.92,3.13-16.38c0.18,0,0.35,0,0.53,0c0.98,5.34,1.92,10.69,2.93,16.02c5.02,26.57,10.87,52.95,18.39,78.95
	c5.46,18.87,12.35,37.15,21.61,54.52c9.95,18.67,23.27,34.4,40.15,47.14c12.03,9.08,25.15,16.27,38.97,22.21
	c15.34,6.59,31.23,11.51,47.36,15.73c26.04,6.82,52.29,12.64,78.78,17.4c1.24,0.22,2.44,0.6,3.67,0.91c0,0.18,0,0.35,0,0.53
	c-0.35,0.04-0.7,0.06-1.04,0.13c-12.47,2.41-24.97,4.69-37.4,7.27c-16.65,3.45-33.23,7.21-49.61,11.8
	c-21.2,5.93-41.77,13.43-61.22,23.85c-14.15,7.59-26.75,17.17-37.61,28.99c-12.09,13.17-21.34,28.19-28.76,44.38
	c-6.11,13.34-10.92,27.15-14.91,41.25c-6.11,21.59-11.34,43.41-15.79,65.4c-1.94,9.57-3.67,19.18-5.49,28.77c-0.26,0-0.53,0-0.79,0
	c-0.03-0.43,0-0.88-0.09-1.3c-3.54-17.38-6.91-34.8-10.7-52.12c-4.24-19.35-9.03-38.57-15.49-57.33
	c-4.99-14.49-10.96-28.54-18.69-41.82c-7.61-13.07-16.72-24.96-27.81-35.28c-10.05-9.36-21.45-16.76-33.6-23.06
	c-14.8-7.67-30.3-13.56-46.23-18.37c-25.15-7.59-50.79-13.18-76.52-18.37C30.53,272.22,22.68,270.82,14.85,269.34z"/>
</svg>
